<svg width="677" height="749" viewBox="0 0 677 749" fill="none" xmlns="http://www.w3.org/2000/svg">
<circle cx="338.5" cy="410.117" r="338" stroke="#BBBBBB"/>
<g filter="url(#filter0_d_800_662)">
<path d="M377.274 128.431C377.921 135.825 372.078 143.238 361.741 149.21C351.442 155.16 336.846 159.573 320.397 161.012C303.947 162.451 288.807 160.64 277.632 156.568C266.415 152.482 259.373 146.197 258.727 138.803C258.08 131.409 263.922 123.996 274.26 118.024C284.558 112.074 299.154 107.661 315.603 106.222C332.053 104.782 347.193 106.594 358.368 110.665C369.586 114.752 376.627 121.037 377.274 128.431Z" stroke="#A0A0A0" shape-rendering="crispEdges"/>
</g>
<g filter="url(#filter1_d_800_662)">
<path d="M541.55 210.94C538.89 217.869 530.389 221.97 518.48 222.806C506.616 223.64 491.562 221.208 476.147 215.29C460.731 209.373 447.918 201.107 439.658 192.549C431.367 183.959 427.794 175.223 430.454 168.294C433.114 161.365 441.615 157.264 453.524 156.427C465.388 155.594 480.442 158.026 495.857 163.943C511.273 169.861 524.086 178.126 532.346 186.684C540.637 195.275 544.21 204.01 541.55 210.94Z" stroke="#A0A0A0" shape-rendering="crispEdges"/>
</g>
<g filter="url(#filter2_d_800_662)">
<path d="M254.589 649.003C252.295 656.062 244.021 660.603 232.171 662.061C220.367 663.514 205.207 661.873 189.503 656.771C173.799 651.668 160.57 644.085 151.874 635.971C143.145 627.826 139.119 619.289 141.413 612.23C143.707 605.171 151.981 600.631 163.83 599.173C175.635 597.72 190.795 599.36 206.499 604.463C222.203 609.565 235.432 617.149 244.128 625.263C252.857 633.408 256.882 641.944 254.589 649.003Z" stroke="#A0A0A0" shape-rendering="crispEdges"/>
</g>
<g filter="url(#filter3_d_800_662)">
<path d="M597.002 543.972C600.825 550.334 598.823 559.558 592.15 569.457C585.502 579.32 574.318 589.685 560.164 598.189C546.01 606.694 531.608 611.702 519.779 612.942C507.906 614.186 498.822 611.624 494.999 605.262C491.176 598.9 493.178 589.676 499.851 579.777C506.499 569.914 517.683 559.549 531.837 551.045C545.991 542.54 560.393 537.532 572.222 536.292C584.095 535.048 593.179 537.61 597.002 543.972Z" stroke="#A0A0A0" shape-rendering="crispEdges"/>
</g>
<g filter="url(#filter4_d_800_662)">
<path d="M294.5 353.117C294.5 384.49 261.938 410.117 221.5 410.117C181.062 410.117 148.5 384.49 148.5 353.117C148.5 321.744 181.062 296.117 221.5 296.117C261.938 296.117 294.5 321.744 294.5 353.117Z" stroke="#BABABA" shape-rendering="crispEdges"/>
</g>
<rect x="538.886" y="4.64665" width="11" height="119" transform="rotate(27 538.886 4.64665)" fill="white" stroke="black"/>
<g filter="url(#filter5_d_800_662)">
<path d="M479.926 112.651L495.964 120.823" stroke="#838383" stroke-linecap="round"/>
</g>
<g filter="url(#filter6_d_800_662)">
<path d="M473.621 117.617L495.005 128.513" stroke="#B2B2B2" stroke-linecap="round"/>
</g>
<g filter="url(#filter7_d_800_662)">
<path d="M466.862 125.617L493.592 139.237" stroke="#CDCDCD" stroke-linecap="round"/>
</g>
<path d="M622.754 64.1267L636.015 86.6841L535.521 35.4797L548.686 9.64055L649.181 60.8449L623.137 63.3756L622.357 63.4514L622.754 64.1267Z" stroke="black"/>
<path d="M546.033 30.8443C545.392 30.5181 544.936 30.0732 544.662 29.5097C544.393 28.9483 544.32 28.3008 544.442 27.5671C544.567 26.8292 544.898 26.0397 545.437 25.1985C545.99 24.3282 546.59 23.6649 547.237 23.2086C547.887 22.7544 548.544 22.4974 549.208 22.4378C549.877 22.3802 550.516 22.5072 551.128 22.8186C551.976 23.2508 552.499 23.8079 552.696 24.4897C552.899 25.1696 552.847 25.8892 552.539 26.6486L550.958 26.2046C551.099 25.7424 551.122 25.322 551.027 24.9435C550.932 24.565 550.697 24.2805 550.323 24.0898C550.003 23.9267 549.647 23.8791 549.256 23.9471C548.868 24.0109 548.468 24.2051 548.056 24.5296C547.645 24.8542 547.246 25.3187 546.859 25.9231C546.5 26.4943 546.256 27.0194 546.127 27.4985C546.002 27.9796 545.997 28.3959 546.111 28.7474C546.23 29.101 546.474 29.3721 546.844 29.5607C547.318 29.8022 547.771 29.8578 548.204 29.7275C548.64 29.5931 548.989 29.3182 549.253 28.9028L550.675 29.6273C550.31 30.2006 549.882 30.6294 549.391 30.9137C548.903 31.1938 548.371 31.3285 547.795 31.3179C547.223 31.3094 546.636 31.1515 546.033 30.8443ZM552.666 34.2243C552.163 33.968 551.781 33.6238 551.519 33.1919C551.261 32.7621 551.158 32.2615 551.208 31.69C551.262 31.1206 551.503 30.4995 551.93 29.8265C552.365 29.1369 552.842 28.6261 553.363 28.294C553.887 27.9641 554.42 27.7907 554.963 27.774C555.51 27.7593 556.029 27.877 556.519 28.127C557.01 28.377 557.384 28.7169 557.642 29.1467C557.902 29.5724 558.006 30.0709 557.956 30.6424C557.91 31.216 557.668 31.8444 557.231 32.5278C556.798 33.2028 556.319 33.7052 555.795 34.0352C555.277 34.3631 554.748 34.5386 554.207 34.5616C553.671 34.5867 553.157 34.4743 552.666 34.2243ZM553.39 32.9744C553.785 33.1757 554.205 33.1883 554.651 33.0122C555.099 32.8319 555.514 32.4438 555.896 31.8477C556.287 31.235 556.466 30.7187 556.434 30.299C556.404 29.8751 556.191 29.5625 555.796 29.3612C555.397 29.1578 554.974 29.1463 554.526 29.3265C554.08 29.5026 553.659 29.896 553.264 30.5066C553.011 30.9012 552.848 31.261 552.777 31.5861C552.712 31.9091 552.732 32.1889 552.837 32.4255C552.943 32.658 553.128 32.841 553.39 32.9744ZM556.975 36.1998L560.638 30.4298L561.786 31.0145C561.705 31.1934 561.623 31.3691 561.54 31.5417C561.462 31.7164 561.38 31.8922 561.295 32.0689C561.723 31.7841 562.144 31.6214 562.558 31.5807C562.975 31.5422 563.371 31.6182 563.746 31.8089C564.203 32.0419 564.514 32.3469 564.678 32.7238C564.842 33.1008 564.876 33.5216 564.781 33.9862C565.251 33.6392 565.708 33.4507 566.153 33.4206C566.598 33.3906 567.024 33.4794 567.432 33.6871C567.881 33.9159 568.187 34.2135 568.351 34.58C568.518 34.9423 568.554 35.3537 568.461 35.8143C568.37 36.2706 568.162 36.7564 567.836 37.2715L565.707 40.6489L564.372 39.9688L566.502 36.5914C566.766 36.1656 566.871 35.7949 566.817 35.4793C566.769 35.1617 566.589 34.9235 566.278 34.7646C566.012 34.629 565.732 34.5862 565.44 34.6361C565.151 34.6882 564.859 34.8404 564.563 35.0928C564.273 35.3432 563.981 35.6999 563.687 36.1631L562.04 38.7803L560.705 38.1002L562.834 34.7228C563.113 34.2992 563.223 33.9285 563.165 33.6108C563.107 33.2932 562.926 33.057 562.623 32.9023C562.219 32.6968 561.778 32.705 561.298 32.9267C560.825 33.1464 560.368 33.6021 559.926 34.2938L558.297 36.8735L556.975 36.1998ZM572.711 35.1986C572.453 35.0672 572.298 34.8939 572.245 34.6785C572.199 34.4611 572.251 34.2205 572.401 33.9565C572.557 33.7115 572.755 33.5502 572.993 33.4727C573.236 33.3973 573.486 33.4253 573.744 33.5566C573.998 33.6859 574.149 33.8623 574.197 34.086C574.252 34.3076 574.204 34.5452 574.054 34.7987C573.891 35.0563 573.69 35.2206 573.449 35.2919C573.211 35.3589 572.965 35.3278 572.711 35.1986ZM567.734 41.6818L571.403 35.8993L572.726 36.573L569.057 42.3556L567.734 41.6818ZM571.301 43.4991L574.964 37.7291L576.111 38.3138L575.621 39.3682C576.049 39.0835 576.47 38.9207 576.883 38.88C577.301 38.8415 577.697 38.9175 578.071 39.1082C578.52 39.337 578.829 39.6357 578.997 40.0043C579.168 40.3688 579.206 40.7813 579.113 41.2418C579.026 41.7003 578.82 42.1871 578.495 42.7022L576.365 46.0796L575.031 45.3995L577.16 42.0221C577.439 41.5985 577.549 41.2278 577.491 40.9102C577.433 40.5925 577.252 40.3563 576.948 40.2017C576.545 39.9961 576.104 40.0043 575.624 40.226C575.151 40.4458 574.693 40.9014 574.252 41.5931L572.623 44.1728L571.301 43.4991ZM578.419 51.07C577.854 50.7818 577.406 50.4383 577.075 50.0392C576.742 49.6443 576.544 49.2348 576.483 48.8106C576.424 48.3928 576.51 48.0021 576.742 47.6386C576.96 47.3043 577.244 47.08 577.596 46.9658C577.951 46.8537 578.309 46.8554 578.67 46.9708C578.542 46.7277 578.478 46.4883 578.478 46.2525C578.48 46.0125 578.545 45.7865 578.674 45.5746C578.839 45.3025 579.063 45.1132 579.348 45.0068C579.635 44.8963 579.938 44.8725 580.257 44.9355C580.169 44.6447 580.145 44.3471 580.185 44.0427C580.227 43.7341 580.345 43.4251 580.54 43.1156C580.812 42.694 581.153 42.3804 581.561 42.1748C581.974 41.9713 582.41 41.8765 582.869 41.8904C583.334 41.9023 583.777 42.0153 584.197 42.2292C584.45 42.3585 584.67 42.5125 584.857 42.6913C585.045 42.866 585.2 43.055 585.322 43.2584C585.548 42.97 585.81 42.7528 586.11 42.6069C586.409 42.461 586.717 42.3872 587.032 42.3854C587.353 42.3816 587.655 42.4517 587.938 42.5957L587.02 43.9036C586.708 43.7447 586.431 43.6769 586.189 43.7001C585.953 43.7212 585.756 43.846 585.598 44.0744C585.621 44.3062 585.604 44.544 585.548 44.7878C585.499 45.0295 585.397 45.2708 585.242 45.5118C584.982 45.9293 584.647 46.2377 584.237 46.437C583.826 46.6364 583.383 46.7301 582.907 46.7181C582.438 46.7041 581.98 46.5838 581.536 46.3571C581.382 46.2787 581.231 46.1836 581.084 46.0719C580.939 45.956 580.811 45.8308 580.702 45.6964C580.558 45.6703 580.411 45.6817 580.26 45.7307C580.113 45.7817 579.988 45.883 579.885 46.0346C579.78 46.1903 579.761 46.3509 579.828 46.5163C579.896 46.6817 580.086 46.8438 580.397 47.0027L582.231 47.937C582.805 48.2294 583.186 48.5704 583.375 48.96C583.564 49.3496 583.511 49.7834 583.215 50.2611C582.96 50.6808 582.584 51.0108 582.09 51.2512C581.594 51.4958 581.028 51.6136 580.394 51.6046C579.759 51.5957 579.101 51.4174 578.419 51.07ZM579.085 49.9324C579.509 50.1485 579.906 50.2694 580.275 50.2952C580.645 50.3209 580.966 50.2754 581.241 50.1585C581.517 50.0479 581.717 49.8908 581.842 49.6872C581.941 49.5231 581.97 49.3751 581.927 49.2433C581.882 49.1156 581.774 49.0084 581.604 48.9215L579.683 47.9427C579.35 47.7732 579.037 47.7187 578.745 47.7791C578.454 47.8457 578.24 47.9986 578.103 48.2375C577.938 48.5305 577.948 48.8291 578.133 49.1331C578.323 49.4393 578.64 49.7057 579.085 49.9324ZM582.219 45.4012C582.46 45.524 582.685 45.5758 582.894 45.5566C583.109 45.5352 583.304 45.4616 583.478 45.3356C583.658 45.2076 583.81 45.0438 583.933 44.8444C584.146 44.5079 584.227 44.1955 584.174 43.9071C584.125 43.6145 583.933 43.3835 583.601 43.214C583.251 43.036 582.922 43.0043 582.612 43.1188C582.302 43.2333 582.048 43.4547 581.849 43.783C581.657 44.0883 581.582 44.3904 581.623 44.6891C581.671 44.9859 581.87 45.2232 582.219 45.4012ZM589.493 52.9883C589.039 52.7573 588.676 52.4728 588.403 52.1347C588.135 51.7988 587.981 51.4324 587.942 51.0355C587.91 50.6367 588.026 50.2347 588.289 49.8298L589.524 50.459C589.353 50.7228 589.321 50.9761 589.428 51.219C589.537 51.4577 589.751 51.6587 590.071 51.8218C590.408 51.9934 590.707 52.0594 590.968 52.0196C591.232 51.9757 591.425 51.8624 591.55 51.6797C591.664 51.5073 591.681 51.3405 591.601 51.1791C591.523 51.0137 591.406 50.8469 591.251 50.6787L590.345 49.62C590.026 49.2586 589.835 48.8835 589.771 48.4949C589.711 48.1083 589.802 47.7302 590.043 47.3605C590.26 47.0262 590.539 46.7862 590.881 46.6406C591.222 46.495 591.604 46.4436 592.028 46.4865C592.453 46.5252 592.89 46.659 593.34 46.8878C594.067 47.2585 594.513 47.7002 594.676 48.2128C594.843 48.7275 594.778 49.2341 594.482 49.7328L593.235 49.0972C593.341 48.8893 593.348 48.6911 593.255 48.5025C593.163 48.314 592.979 48.1498 592.705 48.01C592.501 47.9062 592.311 47.8484 592.133 47.8366C591.962 47.8228 591.813 47.8435 591.685 47.8989C591.562 47.9564 591.463 48.0371 591.389 48.1409C591.286 48.2924 591.266 48.4499 591.329 48.6131C591.397 48.7785 591.504 48.938 591.651 49.0914L592.625 50.2634C592.925 50.5996 593.123 50.9517 593.218 51.3198C593.32 51.6858 593.252 52.0547 593.016 52.4265C592.828 52.7235 592.555 52.9614 592.196 53.1403C591.842 53.3213 591.431 53.4079 590.964 53.4002C590.499 53.3883 590.008 53.251 589.493 52.9883ZM595.619 56.1098C595.116 55.8535 594.734 55.5094 594.472 55.0774C594.214 54.6476 594.11 54.147 594.161 53.5755C594.215 53.0062 594.456 52.385 594.882 51.712C595.318 51.0224 595.795 50.5116 596.315 50.1795C596.84 49.8496 597.373 49.6762 597.916 49.6595C598.463 49.6449 598.982 49.7625 599.472 50.0125C599.963 50.2625 600.337 50.6024 600.595 51.0322C600.854 51.4579 600.959 51.9564 600.909 52.5279C600.863 53.1015 600.621 53.73 600.184 54.4133C599.751 55.0883 599.272 55.5908 598.748 55.9207C598.23 56.2486 597.701 56.4241 597.16 56.4471C596.623 56.4723 596.11 56.3598 595.619 56.1098ZM596.342 54.86C596.737 55.0612 597.158 55.0738 597.604 54.8977C598.052 54.7175 598.467 54.3293 598.849 53.7332C599.24 53.1205 599.419 52.6043 599.387 52.1845C599.357 51.7606 599.144 51.448 598.749 51.2468C598.35 51.0434 597.926 51.0318 597.478 51.2121C597.032 51.3882 596.612 51.7815 596.217 52.3921C595.964 52.7867 595.801 53.1466 595.73 53.4716C595.665 53.7946 595.685 54.0744 595.789 54.3111C595.896 54.5435 596.08 54.7265 596.342 54.86ZM601.966 59.3436C601.463 59.0873 601.08 58.7432 600.818 58.3112C600.561 57.8814 600.457 57.3808 600.507 56.8093C600.562 56.24 600.802 55.6188 601.229 54.9458C601.664 54.2562 602.142 53.7454 602.662 53.4133C603.186 53.0834 603.72 52.91 604.263 52.8933C604.809 52.8787 605.328 52.9963 605.819 53.2463C606.31 53.4963 606.684 53.8362 606.941 54.266C607.201 54.6917 607.306 55.1902 607.255 55.7617C607.209 56.3353 606.968 56.9638 606.531 57.6471C606.098 58.3221 605.619 58.8246 605.095 59.1545C604.577 59.4824 604.047 59.6579 603.507 59.6809C602.97 59.7061 602.456 59.5936 601.966 59.3436ZM602.689 58.0938C603.084 58.295 603.505 58.3076 603.95 58.1315C604.398 57.9513 604.814 57.5631 605.196 56.967C605.587 56.3543 605.766 55.8381 605.734 55.4183C605.703 54.9944 605.491 54.6818 605.096 54.4806C604.697 54.2772 604.273 54.2656 603.825 54.4459C603.379 54.622 602.959 55.0153 602.564 55.6259C602.31 56.0205 602.148 56.3804 602.077 56.7054C602.012 57.0284 602.031 57.3082 602.136 57.5448C602.243 57.7773 602.427 57.9603 602.689 58.0938ZM606.275 61.3191L609.937 55.5491L611.085 56.1338L610.595 57.1882C611.023 56.9035 611.444 56.7407 611.857 56.7001C612.275 56.6615 612.671 56.7375 613.045 56.9282C613.494 57.157 613.803 57.4557 613.971 57.8243C614.142 58.1888 614.18 58.6013 614.087 59.0618C614 59.5203 613.794 60.0071 613.468 60.5222L611.339 63.8996L610.004 63.2195L612.134 59.8421C612.412 59.4185 612.523 59.0478 612.465 58.7302C612.407 58.4125 612.226 58.1763 611.922 58.0217C611.519 57.8162 611.077 57.8243 610.598 58.046C610.124 58.2658 609.667 58.7214 609.226 59.4131L607.597 61.9928L606.275 61.3191ZM613.334 65.0577C613.068 64.9221 612.902 64.7195 612.835 64.4497C612.772 64.1821 612.831 63.9133 613.01 63.6434C613.179 63.3838 613.407 63.2091 613.694 63.1195C613.982 63.0257 614.262 63.0476 614.532 63.1853C614.794 63.3188 614.959 63.5183 615.028 63.7839C615.097 64.0495 615.048 64.3204 614.881 64.5967C614.706 64.8792 614.47 65.0601 614.173 65.1392C613.88 65.2205 613.601 65.1933 613.334 65.0577ZM615.746 66.2867C615.48 66.1511 615.314 65.9484 615.247 65.6787C615.184 65.4111 615.243 65.1423 615.422 64.8723C615.591 64.6127 615.819 64.4381 616.106 64.3484C616.394 64.2546 616.674 64.2766 616.944 64.4143C617.206 64.5478 617.371 64.7473 617.44 65.0129C617.509 65.2784 617.46 65.5494 617.293 65.8257C617.118 66.1082 616.882 66.289 616.585 66.3682C616.292 66.4494 616.013 66.4223 615.746 66.2867ZM618.158 67.5156C617.892 67.3801 617.726 67.1774 617.659 66.9076C617.596 66.64 617.655 66.3712 617.834 66.1013C618.003 65.8417 618.231 65.6671 618.518 65.5774C618.806 65.4836 619.086 65.5055 619.356 65.6433C619.618 65.7767 619.783 65.9763 619.852 66.2418C619.921 66.5074 619.872 66.7784 619.705 67.0547C619.53 67.3372 619.294 67.518 618.997 67.5971C618.704 67.6784 618.425 67.6512 618.158 67.5156Z" fill="black"/>
<ellipse cx="541.5" cy="425.5" rx="7.5" ry="4.5" fill="#BBBBBB"/>
<ellipse cx="424.5" cy="468.5" rx="5.5" ry="6.5" fill="#BBBBBB"/>
<ellipse cx="171" cy="209" rx="8" ry="5" fill="#BBBBBB"/>
<defs>
<filter id="filter0_d_800_662" x="246.178" y="102.232" width="137.645" height="74.769" filterUnits="userSpaceOnUse" color-interpolation-filters="sRGB">
<feFlood flood-opacity="0" result="BackgroundImageFix"/>
<feColorMatrix in="SourceAlpha" type="matrix" values="0 0 0 0 0 0 0 0 0 0 0 0 0 0 0 0 0 0 127 0" result="hardAlpha"/>
<feMorphology radius="1" operator="dilate" in="SourceAlpha" result="effect1_dropShadow_800_662"/>
<feOffset dx="-3" dy="6"/>
<feGaussianBlur stdDeviation="4"/>
<feComposite in2="hardAlpha" operator="out"/>
<feColorMatrix type="matrix" values="0 0 0 0 0 0 0 0 0 0 0 0 0 0 0 0 0 0 0.25 0"/>
<feBlend mode="normal" in2="BackgroundImageFix" result="effect1_dropShadow_800_662"/>
<feBlend mode="normal" in="SourceGraphic" in2="effect1_dropShadow_800_662" result="shape"/>
</filter>
<filter id="filter1_d_800_662" x="417.086" y="152.768" width="131.832" height="85.6969" filterUnits="userSpaceOnUse" color-interpolation-filters="sRGB">
<feFlood flood-opacity="0" result="BackgroundImageFix"/>
<feColorMatrix in="SourceAlpha" type="matrix" values="0 0 0 0 0 0 0 0 0 0 0 0 0 0 0 0 0 0 127 0" result="hardAlpha"/>
<feMorphology radius="1" operator="dilate" in="SourceAlpha" result="effect1_dropShadow_800_662"/>
<feOffset dx="-3" dy="6"/>
<feGaussianBlur stdDeviation="4"/>
<feComposite in2="hardAlpha" operator="out"/>
<feColorMatrix type="matrix" values="0 0 0 0 0 0 0 0 0 0 0 0 0 0 0 0 0 0 0.25 0"/>
<feBlend mode="normal" in2="BackgroundImageFix" result="effect1_dropShadow_800_662"/>
<feBlend mode="normal" in="SourceGraphic" in2="effect1_dropShadow_800_662" result="shape"/>
</filter>
<filter id="filter2_d_800_662" x="125.277" y="591.165" width="133.447" height="82.9027" filterUnits="userSpaceOnUse" color-interpolation-filters="sRGB">
<feFlood flood-opacity="0" result="BackgroundImageFix"/>
<feColorMatrix in="SourceAlpha" type="matrix" values="0 0 0 0 0 0 0 0 0 0 0 0 0 0 0 0 0 0 127 0" result="hardAlpha"/>
<feMorphology radius="1" operator="dilate" in="SourceAlpha" result="effect1_dropShadow_800_662"/>
<feOffset dx="-6" dy="2"/>
<feGaussianBlur stdDeviation="4"/>
<feComposite in2="hardAlpha" operator="out"/>
<feColorMatrix type="matrix" values="0 0 0 0 0 0 0 0 0 0 0 0 0 0 0 0 0 0 0.25 0"/>
<feBlend mode="normal" in2="BackgroundImageFix" result="effect1_dropShadow_800_662"/>
<feBlend mode="normal" in="SourceGraphic" in2="effect1_dropShadow_800_662" result="shape"/>
</filter>
<filter id="filter3_d_800_662" x="478.573" y="527.487" width="124.854" height="96.2592" filterUnits="userSpaceOnUse" color-interpolation-filters="sRGB">
<feFlood flood-opacity="0" result="BackgroundImageFix"/>
<feColorMatrix in="SourceAlpha" type="matrix" values="0 0 0 0 0 0 0 0 0 0 0 0 0 0 0 0 0 0 127 0" result="hardAlpha"/>
<feMorphology radius="1" operator="dilate" in="SourceAlpha" result="effect1_dropShadow_800_662"/>
<feOffset dx="-5" dy="1"/>
<feGaussianBlur stdDeviation="4"/>
<feComposite in2="hardAlpha" operator="out"/>
<feColorMatrix type="matrix" values="0 0 0 0 0 0 0 0 0 0 0 0 0 0 0 0 0 0 0.25 0"/>
<feBlend mode="normal" in2="BackgroundImageFix" result="effect1_dropShadow_800_662"/>
<feBlend mode="normal" in="SourceGraphic" in2="effect1_dropShadow_800_662" result="shape"/>
</filter>
<filter id="filter4_d_800_662" x="136" y="292.617" width="165" height="133" filterUnits="userSpaceOnUse" color-interpolation-filters="sRGB">
<feFlood flood-opacity="0" result="BackgroundImageFix"/>
<feColorMatrix in="SourceAlpha" type="matrix" values="0 0 0 0 0 0 0 0 0 0 0 0 0 0 0 0 0 0 127 0" result="hardAlpha"/>
<feMorphology radius="1" operator="dilate" in="SourceAlpha" result="effect1_dropShadow_800_662"/>
<feOffset dx="-3" dy="6"/>
<feGaussianBlur stdDeviation="4"/>
<feComposite in2="hardAlpha" operator="out"/>
<feColorMatrix type="matrix" values="0 0 0 0 0 0 0 0 0 0 0 0 0 0 0 0 0 0 0.25 0"/>
<feBlend mode="normal" in2="BackgroundImageFix" result="effect1_dropShadow_800_662"/>
<feBlend mode="normal" in="SourceGraphic" in2="effect1_dropShadow_800_662" result="shape"/>
</filter>
<filter id="filter5_d_800_662" x="475.426" y="109.151" width="25.0381" height="17.172" filterUnits="userSpaceOnUse" color-interpolation-filters="sRGB">
<feFlood flood-opacity="0" result="BackgroundImageFix"/>
<feColorMatrix in="SourceAlpha" type="matrix" values="0 0 0 0 0 0 0 0 0 0 0 0 0 0 0 0 0 0 127 0" result="hardAlpha"/>
<feOffset dy="1"/>
<feGaussianBlur stdDeviation="2"/>
<feComposite in2="hardAlpha" operator="out"/>
<feColorMatrix type="matrix" values="0 0 0 0 0 0 0 0 0 0 0 0 0 0 0 0 0 0 0.25 0"/>
<feBlend mode="normal" in2="BackgroundImageFix" result="effect1_dropShadow_800_662"/>
<feBlend mode="normal" in="SourceGraphic" in2="effect1_dropShadow_800_662" result="shape"/>
</filter>
<filter id="filter6_d_800_662" x="469.121" y="114.117" width="30.3838" height="19.896" filterUnits="userSpaceOnUse" color-interpolation-filters="sRGB">
<feFlood flood-opacity="0" result="BackgroundImageFix"/>
<feColorMatrix in="SourceAlpha" type="matrix" values="0 0 0 0 0 0 0 0 0 0 0 0 0 0 0 0 0 0 127 0" result="hardAlpha"/>
<feOffset dy="1"/>
<feGaussianBlur stdDeviation="2"/>
<feComposite in2="hardAlpha" operator="out"/>
<feColorMatrix type="matrix" values="0 0 0 0 0 0 0 0 0 0 0 0 0 0 0 0 0 0 0.25 0"/>
<feBlend mode="normal" in2="BackgroundImageFix" result="effect1_dropShadow_800_662"/>
<feBlend mode="normal" in="SourceGraphic" in2="effect1_dropShadow_800_662" result="shape"/>
</filter>
<filter id="filter7_d_800_662" x="462.362" y="122.117" width="35.7305" height="22.6199" filterUnits="userSpaceOnUse" color-interpolation-filters="sRGB">
<feFlood flood-opacity="0" result="BackgroundImageFix"/>
<feColorMatrix in="SourceAlpha" type="matrix" values="0 0 0 0 0 0 0 0 0 0 0 0 0 0 0 0 0 0 127 0" result="hardAlpha"/>
<feOffset dy="1"/>
<feGaussianBlur stdDeviation="2"/>
<feComposite in2="hardAlpha" operator="out"/>
<feColorMatrix type="matrix" values="0 0 0 0 0 0 0 0 0 0 0 0 0 0 0 0 0 0 0.25 0"/>
<feBlend mode="normal" in2="BackgroundImageFix" result="effect1_dropShadow_800_662"/>
<feBlend mode="normal" in="SourceGraphic" in2="effect1_dropShadow_800_662" result="shape"/>
</filter>
</defs>
</svg>
